<?xml version="1.0" standalone="no"?><!DOCTYPE svg PUBLIC "-//W3C//DTD SVG 1.1//EN" "http://www.w3.org/Graphics/SVG/1.1/DTD/svg11.dtd"><svg class="icon" width="64px" height="64.00px" viewBox="0 0 1024 1024" version="1.1" xmlns="http://www.w3.org/2000/svg"><path d="M511.1 511.1l1.8 1.8-1.8-1.8zM513.1 510.9l-2.2 2.2c0.8-0.7 1.5-1.4 2.2-2.2z" fill="#FFFFFF" /><path d="M512 64C264.6 64 64 264.6 64 512s200.6 448 448 448 448-200.6 448-448S759.4 64 512 64z m116.8 659c-12.5 12.4-32.9 12.4-45.3 0L417.8 557.3l-21.5-21.5-2.2-2.2c-5.2-5.7-8.3-13.2-8.3-21.5-0.1-8.4 3.1-16.1 8.4-21.8l1.8-1.8 21.8-21.8L583.5 301c12.4-12.5 32.8-12.5 45.2-0.1 12.4 12.5 12.4 32.9 0 45.3L463 512l165.8 165.7c12.4 12.5 12.4 32.9 0 45.3z"  /></svg>