<?xml version="1.0" encoding="utf-8"?>
<!-- Generator: Adobe Illustrator 16.0.0, SVG Export Plug-In . SVG Version: 6.00 Build 0)  -->
<!DOCTYPE svg PUBLIC "-//W3C//DTD SVG 1.1//EN" "http://www.w3.org/Graphics/SVG/1.1/DTD/svg11.dtd">
<svg version="1.1" id="图层_1" xmlns="http://www.w3.org/2000/svg" xmlns:xlink="http://www.w3.org/1999/xlink" x="0px" y="0px"
	 width="64px" height="64px" viewBox="0 0 64 64" enable-background="new 0 0 64 64" xml:space="preserve">
<path d="M61.076,56.816l-10.4-10.404c3.885-4.836,5.998-10.854,5.992-17.056C56.67,14.259,44.434,2.018,29.336,2.016
	C14.239,2.014,1.998,14.251,1.996,29.348C1.994,44.445,14.231,56.686,29.328,56.688c0.002,0,0.005,0,0.008,0
	c6.225,0.008,12.262-2.121,17.104-6.031l10.396,10.396c1.165,1.203,3.084,1.233,4.287,0.068c0.004-0.004,0.009-0.008,0.014-0.013
	C62.302,59.905,62.275,57.986,61.076,56.816z M8.004,29.36C8,17.579,17.548,8.025,29.33,8.021
	c11.782-0.003,21.334,9.544,21.338,21.326c0,0.004,0,0.009,0,0.013c0,11.783-9.552,21.333-21.334,21.333S8,41.143,8,29.36H8.004z
	 M39.221,26.728H19.456c-1.475-0.018-2.686,1.161-2.708,2.636c0,1.456,1.216,2.632,2.708,2.632h19.76
	c1.473,0.016,2.683-1.16,2.708-2.632C41.9,27.892,40.692,26.715,39.221,26.728z"/>
</svg>
